<svg width="208" height="329" viewBox="0 0 208 329" fill="none" xmlns="http://www.w3.org/2000/svg">
<rect x="20.1111" y="123.889" width="168.333" height="204.444" rx="20" fill="#7F2BC1"/>
<g filter="url(#filter0_d)">
<circle cx="104" cy="100" r="100" fill="white"/>
</g>
<g clip-path="url(#clip0)">
<path d="M95.1476 132.675C90.2658 132.675 86.293 136.648 86.293 141.529C86.293 146.411 90.2658 150.384 95.1476 150.384C100.029 150.384 104.002 146.411 104.002 141.529C104.002 136.648 100.029 132.675 95.1476 132.675ZM95.1476 144.481C93.5184 144.481 92.1961 143.159 92.1961 141.529C92.1961 139.9 93.5184 138.578 95.1476 138.578C96.7769 138.578 98.0992 139.9 98.0992 141.529C98.0992 143.159 96.7769 144.481 95.1476 144.481Z" fill="#7F2BC1"/>
<path d="M130.566 132.675C125.684 132.675 121.711 136.648 121.711 141.529C121.711 146.411 125.684 150.384 130.566 150.384C135.448 150.384 139.421 146.411 139.421 141.529C139.421 136.648 135.448 132.675 130.566 132.675ZM130.566 144.481C128.937 144.481 127.614 143.159 127.614 141.529C127.614 139.9 128.937 138.578 130.566 138.578C132.195 138.578 133.517 139.9 133.517 141.529C133.517 143.159 132.195 144.481 130.566 144.481Z" fill="#7F2BC1"/>
<path d="M150.536 74.7068C149.981 74.0338 149.149 73.6442 148.275 73.6442H78.9024L76.3346 64.0282C75.9922 62.7354 74.8234 61.8381 73.4834 61.8381H59.7293C58.1001 61.8381 56.7778 63.1604 56.7778 64.7897C56.7778 66.4189 58.1001 67.7412 59.7293 67.7412H71.2166L86.3934 124.582C86.7358 125.874 87.9046 126.772 89.2446 126.772H136.469C138.098 126.772 139.421 125.449 139.421 123.82C139.421 122.191 138.098 120.869 136.469 120.869H91.5113L89.7817 114.387L142.502 112.014C143.877 111.949 145.028 110.946 145.27 109.594L151.174 77.127C151.333 76.2652 151.097 75.3797 150.536 74.7068ZM139.893 106.223L88.2174 108.549L80.4785 79.5473H144.739L139.893 106.223Z" fill="#7F2BC1"/>
<path d="M130.566 85.4504C128.937 85.4504 127.614 86.7727 127.614 88.4019V100.208C127.614 101.837 128.937 103.16 130.566 103.16C132.195 103.16 133.517 101.837 133.517 100.208V88.4019C133.517 86.7727 132.195 85.4504 130.566 85.4504Z" fill="#7F2BC1"/>
<path d="M112.857 85.4504C111.228 85.4504 109.905 86.7727 109.905 88.4019V100.208C109.905 101.837 111.228 103.16 112.857 103.16C114.486 103.16 115.808 101.837 115.808 100.208V88.4019C115.808 86.7727 114.486 85.4504 112.857 85.4504Z" fill="#7F2BC1"/>
<path d="M95.1476 85.4504C93.5184 85.4504 92.1961 86.7727 92.1961 88.4019V100.208C92.1961 101.837 93.5184 103.16 95.1476 103.16C96.7769 103.16 98.0992 101.837 98.0992 100.208V88.4019C98.0992 86.7727 96.7769 85.4504 95.1476 85.4504Z" fill="#7F2BC1"/>
</g>
<defs>
<filter id="filter0_d" x="0" y="0" width="208" height="212" filterUnits="userSpaceOnUse" color-interpolation-filters="sRGB">
<feFlood flood-opacity="0" result="BackgroundImageFix"/>
<feColorMatrix in="SourceAlpha" type="matrix" values="0 0 0 0 0 0 0 0 0 0 0 0 0 0 0 0 0 0 127 0"/>
<feOffset dy="8"/>
<feGaussianBlur stdDeviation="2"/>
<feColorMatrix type="matrix" values="0 0 0 0 0 0 0 0 0 0 0 0 0 0 0 0 0 0 0.25 0"/>
<feBlend mode="normal" in2="BackgroundImageFix" result="effect1_dropShadow"/>
<feBlend mode="normal" in="SourceGraphic" in2="effect1_dropShadow" result="shape"/>
</filter>
<clipPath id="clip0">
<rect width="94.4444" height="94.4444" fill="white" transform="translate(56.7778 58.8889)"/>
</clipPath>
</defs>
</svg>
