<svg width="208" height="329" viewBox="0 0 208 329" fill="none" xmlns="http://www.w3.org/2000/svg">
<rect x="20.1111" y="123.889" width="168.333" height="204.444" rx="20" fill="#7F2BC1"/>
<g filter="url(#filter0_d)">
<circle cx="104" cy="100" r="100" fill="white"/>
</g>
<g clip-path="url(#clip0)">
<path d="M152.234 115.47C150.638 106.481 144.673 99.2637 136.807 95.9161C140.298 92.989 142.527 88.5565 142.527 83.6049C142.527 74.8101 135.497 67.6548 126.856 67.6548C118.215 67.6548 111.185 74.8094 111.185 83.6049C111.185 88.5595 113.416 92.9934 116.911 95.9213C115.607 96.4774 114.344 97.1411 113.137 97.9148C110.096 99.8647 107.5 102.433 105.499 105.44C103.463 104.088 101.273 102.962 98.965 102.099C103.926 98.5122 107.17 92.615 107.17 85.9605C107.17 75.055 98.4591 66.1827 87.7519 66.1827C77.0448 66.1827 68.3341 75.055 68.3341 85.9605C68.3341 92.615 71.5776 98.5122 76.5389 102.099C65.9807 106.049 57.8829 115.442 55.7824 127.269C55.3945 129.456 55.9904 131.686 57.416 133.388C58.8283 135.073 60.8889 136.04 63.0698 136.04H112.434C114.615 136.04 116.676 135.073 118.088 133.388C119.514 131.686 120.109 129.456 119.721 127.269C119.463 125.81 119.112 124.389 118.677 123.011H145.962C147.84 123.011 149.614 122.179 150.83 120.729C152.055 119.266 152.567 117.349 152.234 115.47ZM116.849 83.6049C116.849 77.9327 121.338 73.3189 126.856 73.3189C132.374 73.3189 136.863 77.9327 136.863 83.6049C136.863 89.2763 132.374 93.8902 126.856 93.8902C121.338 93.8902 116.849 89.2763 116.849 83.6049ZM73.9981 85.9605C73.9981 78.1783 80.1681 71.8468 87.7519 71.8468C95.3357 71.8468 101.506 78.1783 101.506 85.9605C101.506 93.7427 95.3357 100.074 87.7519 100.074C80.1681 100.074 73.9981 93.7427 73.9981 85.9605ZM113.747 129.75C113.551 129.984 113.12 130.375 112.434 130.375H63.0698C62.3839 130.375 61.9532 129.984 61.757 129.75C61.5534 129.507 61.2304 128.989 61.3595 128.259C63.6767 115.21 74.7762 105.738 87.7519 105.738C100.728 105.738 111.828 115.21 114.144 128.259C114.274 128.989 113.951 129.507 113.747 129.75ZM146.489 117.091C146.408 117.187 146.233 117.347 145.963 117.347H116.296C114.621 114.207 112.469 111.391 109.944 108.988C113.633 103.119 119.938 99.5543 126.856 99.5543C136.59 99.5543 144.917 106.664 146.657 116.46C146.711 116.769 146.575 116.988 146.489 117.091Z" fill="#7F2BC1"/>
</g>
<defs>
<filter id="filter0_d" x="0" y="0" width="208" height="212" filterUnits="userSpaceOnUse" color-interpolation-filters="sRGB">
<feFlood flood-opacity="0" result="BackgroundImageFix"/>
<feColorMatrix in="SourceAlpha" type="matrix" values="0 0 0 0 0 0 0 0 0 0 0 0 0 0 0 0 0 0 127 0"/>
<feOffset dy="8"/>
<feGaussianBlur stdDeviation="2"/>
<feColorMatrix type="matrix" values="0 0 0 0 0 0 0 0 0 0 0 0 0 0 0 0 0 0 0.25 0"/>
<feBlend mode="normal" in2="BackgroundImageFix" result="effect1_dropShadow"/>
<feBlend mode="normal" in="SourceGraphic" in2="effect1_dropShadow" result="shape"/>
</filter>
<clipPath id="clip0">
<rect width="96.6667" height="96.6667" fill="white" transform="translate(55.6667 52.7778)"/>
</clipPath>
</defs>
</svg>
