<svg width="40" height="40" viewBox="0 0 40 40" fill="none" xmlns="http://www.w3.org/2000/svg">
<rect width="40" height="40" rx="10" fill="#DC4E41"/>
<path d="M5.00585 19.5453C4.92385 23.5225 7.66325 27.318 11.4316 28.5558C14.9811 29.7484 19.3453 28.8562 21.7072 25.8165C23.4317 23.6865 23.8236 20.847 23.6369 18.1941C20.5971 18.1669 17.5573 18.176 14.522 18.1805C14.5171 19.2634 14.522 20.3422 14.5266 21.4251C16.3467 21.4754 18.1672 21.4523 19.9872 21.489C19.5278 23.0635 18.4812 24.5288 16.8926 25.0974C13.8257 26.449 9.91229 24.6833 8.94724 21.4659C7.78234 18.3849 9.68937 14.6668 12.8379 13.7706C14.7903 13.0837 16.8016 13.8571 18.4721 14.872C19.3185 14.0801 20.1105 13.2337 20.8884 12.3782C18.9905 10.7901 16.5515 9.81643 14.0441 10.0303C9.12443 10.0888 4.81919 14.6306 5.00585 19.5453Z" fill="#DC4E41"/>
<path d="M29.5529 15.449C29.5439 16.3547 29.5344 17.2649 29.5299 18.1702C28.6196 18.1793 27.7143 18.1838 26.8086 18.1884C26.8086 19.0941 26.8086 19.9949 26.8086 20.9006C27.7143 20.9051 28.6246 20.9096 29.5299 20.9191C29.5389 21.8248 29.5389 22.7301 29.548 23.6404C30.4492 23.6404 31.3549 23.6359 32.2602 23.6404C32.2651 22.7301 32.2693 21.8248 32.2787 20.9146C33.184 20.9101 34.0943 20.9055 35 20.901C35 19.9953 35 19.0945 35 18.1888C34.0947 18.1843 33.1845 18.1797 32.2787 18.1707C32.2738 17.2649 32.2651 16.3547 32.2602 15.4494C31.3549 15.449 30.4537 15.449 29.5529 15.449Z" fill="#DC4E41"/>
<path d="M5.00585 19.5447C4.81919 14.63 9.12402 10.0882 14.0436 10.0293C16.5511 9.81546 18.9905 10.7892 20.888 12.3773C20.1096 13.2331 19.3176 14.0791 18.4717 14.8711C16.8012 13.8562 14.7899 13.0827 12.8375 13.7696C9.68854 14.6663 7.78151 18.3843 8.94683 21.4649C9.91188 24.6823 13.8252 26.448 16.8922 25.0964C18.4803 24.5278 19.5274 23.0625 19.9868 21.488C18.1668 21.4517 16.3463 21.4744 14.5262 21.4241C14.5216 20.3412 14.5171 19.2624 14.5216 18.1795C17.5569 18.175 20.5967 18.1659 23.6365 18.1931C23.8231 20.8464 23.4317 23.6859 21.7068 25.8155C19.3448 28.8553 14.9811 29.7474 11.4312 28.5549C7.66366 27.3174 4.92385 23.5219 5.00585 19.5447Z" fill="white"/>
<path d="M29.5529 15.449C30.4541 15.449 31.3549 15.449 32.2602 15.449C32.2651 16.3547 32.2738 17.2649 32.2787 18.1702C33.184 18.1793 34.0943 18.1838 35 18.1884C35 19.0941 35 19.9949 35 20.9006C34.0947 20.9051 33.1845 20.9096 32.2787 20.9142C32.2697 21.8244 32.2651 22.7297 32.2602 23.64C31.3549 23.6354 30.4488 23.64 29.548 23.64C29.5393 22.7297 29.5393 21.8244 29.5299 20.9187C28.6246 20.9092 27.7143 20.9051 26.8086 20.9002C26.8086 19.9944 26.8086 19.0937 26.8086 18.188C27.7143 18.1834 28.62 18.1789 29.5299 18.1698C29.5344 17.2649 29.5435 16.3547 29.5529 15.449Z" fill="white"/>
</svg>
