<svg width="188" height="176" viewBox="0 0 188 176" fill="none" xmlns="http://www.w3.org/2000/svg">
<path d="M172.27 78.2773H15.7296C14.0897 78.2773 12.7612 79.5217 12.7612 81.0562V167.28C12.7612 168.815 14.0897 170.059 15.7296 170.059H172.271C173.911 170.059 175.239 168.815 175.239 167.28V81.0566C175.239 79.5214 173.91 78.2773 172.27 78.2773Z" fill="#7F2BC1"/>
<path d="M172.27 78.2773H15.7296C14.0897 78.2773 12.7612 79.5217 12.7612 81.0562V92.1721H175.239V81.0562C175.239 79.5214 173.91 78.2773 172.27 78.2773Z" fill="#5D208D"/>
<path d="M109.165 78.2773H78.8359C77.196 78.2773 75.8675 79.5217 75.8675 81.0562V167.28C75.8675 168.815 77.196 170.059 78.8359 170.059H109.165C110.804 170.059 112.133 168.815 112.133 167.28V81.0566C112.133 79.5214 110.804 78.2773 109.165 78.2773Z" fill="#FFDB57"/>
<path d="M109.165 78.2773H78.8359C77.196 78.2773 75.8675 79.5217 75.8675 81.0562V92.1126H112.133V81.0562C112.133 79.5214 110.804 78.2773 109.165 78.2773Z" fill="#F5BA3D"/>
<path d="M166.488 26.9425C163.577 19.8402 158.984 12.9037 154.203 8.38649C152.448 6.72928 150.085 5.88915 147.395 5.94312C138.483 6.13734 123.96 16.609 104.23 37.0669C103.737 37.5774 103.464 38.2412 103.464 38.9294V53.6285C103.464 55.1633 104.793 56.4073 106.433 56.4073H152.093C162.268 56.4073 166.467 51.7736 168.197 47.8861C170.506 42.7041 169.898 35.2657 166.488 26.9425Z" fill="#FFDB57"/>
<path d="M168.187 31.7844C168.104 31.4991 167.973 31.2279 167.798 30.9814C163.316 24.6368 153.631 27.0108 146.296 30.1193C124.984 39.1503 116.184 51.5903 115.819 52.1152C115.226 52.9701 115.181 54.0594 115.7 54.9549C116.22 55.8504 117.221 56.4076 118.309 56.4076H152.095C158.568 56.4076 163.369 54.5472 166.364 50.8784C169.922 46.5196 170.552 39.9169 168.187 31.7844Z" fill="#EF9325"/>
<path d="M83.7698 37.0672C64.0397 16.6093 49.5167 6.13761 40.6043 5.94339C37.9077 5.88908 35.5515 6.72955 33.797 8.38677C29.0155 12.9036 24.4227 19.8405 21.5124 26.9427C18.1016 35.266 17.4939 42.704 19.8013 47.8867C21.5322 51.7742 25.731 56.408 35.9054 56.408H81.5663C83.2062 56.408 84.5346 55.1636 84.5346 53.6291V38.9296C84.535 38.2415 84.2629 37.5777 83.7698 37.0672Z" fill="#FFDB57"/>
<path d="M72.181 52.1152C71.8167 51.5903 63.016 39.15 41.7048 30.1193C34.3687 27.0108 24.6838 24.6379 20.2016 30.9811C20.0275 31.2279 19.8964 31.4988 19.8134 31.7844C17.4476 39.9169 18.0785 46.5196 21.6362 50.878C24.6306 54.5469 29.4315 56.4073 35.9058 56.4073H69.6914C70.7798 56.4073 71.7807 55.85 72.2999 54.9546C72.8191 54.0594 72.7736 52.9701 72.181 52.1152Z" fill="#EF9325"/>
<path d="M106.433 33.4039H81.5667C79.9268 33.4039 78.5983 34.6483 78.5983 36.1828V53.6291C78.5983 55.164 79.9268 56.408 81.5667 56.408H106.433C108.073 56.408 109.402 55.1636 109.402 53.6291V36.1828C109.402 34.648 108.073 33.4039 106.433 33.4039Z" fill="#F5BA3D"/>
<path d="M185.032 50.8553H2.96834C1.32848 50.8553 0 52.0997 0 53.6342V81.0562C0 82.591 1.32848 83.8351 2.96834 83.8351H185.032C186.672 83.8351 188 82.5907 188 81.0562V53.6342C188 52.0994 186.672 50.8553 185.032 50.8553Z" fill="#7F2BC1"/>
<path d="M116.801 50.8544H71.1984V83.8348H116.801V50.8544Z" fill="#FFDB57"/>
</svg>
