<svg width="190" height="352" viewBox="0 0 190 352" fill="none" xmlns="http://www.w3.org/2000/svg">
<rect x="13" y="156" width="27" height="138" fill="#9454C7"/>
<rect x="150" width="27" height="296" fill="#5D208D"/>
<rect x="82" y="133" width="27" height="161" fill="#7F2BC1"/>
<path d="M149.528 343.896V345H137.984V344.136L145.088 337.08C146.016 336.152 146.64 335.36 146.96 334.704C147.296 334.032 147.464 333.344 147.464 332.64C147.464 331.568 147.096 330.728 146.36 330.12C145.64 329.512 144.592 329.208 143.216 329.208C142.16 329.208 141.232 329.368 140.432 329.688C139.648 330.008 138.968 330.496 138.392 331.152L137.528 330.384C138.168 329.648 138.976 329.08 139.952 328.68C140.944 328.28 142.064 328.08 143.312 328.08C144.96 328.08 146.272 328.48 147.248 329.28C148.224 330.08 148.712 331.16 148.712 332.52C148.712 333.384 148.52 334.208 148.136 334.992C147.752 335.776 147.032 336.688 145.976 337.728L139.784 343.896H149.528ZM158.326 345.12C157.046 345.12 155.902 344.776 154.894 344.088C153.902 343.384 153.126 342.392 152.566 341.112C152.022 339.832 151.75 338.328 151.75 336.6C151.75 334.872 152.022 333.368 152.566 332.088C153.126 330.808 153.902 329.824 154.894 329.136C155.902 328.432 157.046 328.08 158.326 328.08C159.606 328.08 160.742 328.432 161.734 329.136C162.742 329.824 163.518 330.808 164.062 332.088C164.622 333.368 164.902 334.872 164.902 336.6C164.902 338.328 164.622 339.832 164.062 341.112C163.518 342.392 162.742 343.384 161.734 344.088C160.742 344.776 159.606 345.12 158.326 345.12ZM158.326 343.992C159.382 343.992 160.31 343.704 161.11 343.128C161.926 342.536 162.558 341.688 163.006 340.584C163.454 339.464 163.678 338.136 163.678 336.6C163.678 335.064 163.454 333.744 163.006 332.64C162.558 331.52 161.926 330.672 161.11 330.096C160.31 329.504 159.382 329.208 158.326 329.208C157.27 329.208 156.334 329.504 155.518 330.096C154.718 330.672 154.094 331.52 153.646 332.64C153.198 333.744 152.974 335.064 152.974 336.6C152.974 338.136 153.198 339.464 153.646 340.584C154.094 341.688 154.718 342.536 155.518 343.128C156.334 343.704 157.27 343.992 158.326 343.992ZM171.747 328.2V345H170.523V329.304H166.419V328.2H171.747ZM181.048 328.08C183.224 328.08 184.888 328.824 186.04 330.312C187.208 331.784 187.792 333.848 187.792 336.504C187.792 338.36 187.48 339.936 186.856 341.232C186.248 342.512 185.384 343.48 184.264 344.136C183.144 344.792 181.832 345.12 180.328 345.12C178.744 345.12 177.472 344.832 176.512 344.256L177.016 343.272C177.816 343.784 178.92 344.04 180.328 344.04C182.264 344.04 183.784 343.416 184.888 342.168C186.008 340.904 186.568 339.08 186.568 336.696C186.568 335.96 186.52 335.288 186.424 334.68C186.088 335.768 185.432 336.616 184.456 337.224C183.496 337.832 182.368 338.136 181.072 338.136C179.968 338.136 178.984 337.936 178.12 337.536C177.272 337.12 176.616 336.536 176.152 335.784C175.688 335.016 175.456 334.136 175.456 333.144C175.456 332.136 175.696 331.248 176.176 330.48C176.656 329.712 177.32 329.12 178.168 328.704C179.016 328.288 179.976 328.08 181.048 328.08ZM181.24 337.08C182.136 337.08 182.936 336.904 183.64 336.552C184.36 336.2 184.912 335.72 185.296 335.112C185.696 334.504 185.896 333.824 185.896 333.072C185.896 332.4 185.704 331.76 185.32 331.152C184.952 330.544 184.408 330.056 183.688 329.688C182.968 329.32 182.104 329.136 181.096 329.136C179.784 329.136 178.72 329.504 177.904 330.24C177.088 330.96 176.68 331.92 176.68 333.12C176.68 334.32 177.088 335.28 177.904 336C178.72 336.72 179.832 337.08 181.24 337.08Z" fill="black"/>
<path d="M81.528 343.896V345H69.984V344.136L77.088 337.08C78.016 336.152 78.64 335.36 78.96 334.704C79.296 334.032 79.464 333.344 79.464 332.64C79.464 331.568 79.096 330.728 78.36 330.12C77.64 329.512 76.592 329.208 75.216 329.208C74.16 329.208 73.232 329.368 72.432 329.688C71.648 330.008 70.968 330.496 70.392 331.152L69.528 330.384C70.168 329.648 70.976 329.08 71.952 328.68C72.944 328.28 74.064 328.08 75.312 328.08C76.96 328.08 78.272 328.48 79.248 329.28C80.224 330.08 80.712 331.16 80.712 332.52C80.712 333.384 80.52 334.208 80.136 334.992C79.752 335.776 79.032 336.688 77.976 337.728L71.784 343.896H81.528ZM90.3257 345.12C89.0457 345.12 87.9017 344.776 86.8937 344.088C85.9017 343.384 85.1257 342.392 84.5657 341.112C84.0217 339.832 83.7497 338.328 83.7497 336.6C83.7497 334.872 84.0217 333.368 84.5657 332.088C85.1257 330.808 85.9017 329.824 86.8937 329.136C87.9017 328.432 89.0457 328.08 90.3257 328.08C91.6057 328.08 92.7417 328.432 93.7337 329.136C94.7417 329.824 95.5177 330.808 96.0617 332.088C96.6217 333.368 96.9017 334.872 96.9017 336.6C96.9017 338.328 96.6217 339.832 96.0617 341.112C95.5177 342.392 94.7417 343.384 93.7337 344.088C92.7417 344.776 91.6057 345.12 90.3257 345.12ZM90.3257 343.992C91.3817 343.992 92.3097 343.704 93.1097 343.128C93.9257 342.536 94.5577 341.688 95.0057 340.584C95.4537 339.464 95.6777 338.136 95.6777 336.6C95.6777 335.064 95.4537 333.744 95.0057 332.64C94.5577 331.52 93.9257 330.672 93.1097 330.096C92.3097 329.504 91.3817 329.208 90.3257 329.208C89.2697 329.208 88.3337 329.504 87.5177 330.096C86.7177 330.672 86.0937 331.52 85.6457 332.64C85.1977 333.744 84.9737 335.064 84.9737 336.6C84.9737 338.136 85.1977 339.464 85.6457 340.584C86.0937 341.688 86.7177 342.536 87.5177 343.128C88.3337 343.704 89.2697 343.992 90.3257 343.992ZM103.747 328.2V345H102.523V329.304H98.4191V328.2H103.747ZM116.984 336.216C118.136 336.52 119.024 337.032 119.648 337.752C120.288 338.472 120.608 339.352 120.608 340.392C120.608 341.864 120.04 343.024 118.904 343.872C117.768 344.704 116.208 345.12 114.224 345.12C112.256 345.12 110.704 344.704 109.568 343.872C108.448 343.024 107.888 341.864 107.888 340.392C107.888 339.336 108.192 338.456 108.8 337.752C109.424 337.032 110.312 336.52 111.464 336.216C110.504 335.896 109.768 335.416 109.256 334.776C108.744 334.136 108.488 333.352 108.488 332.424C108.488 331.08 109.008 330.024 110.048 329.256C111.088 328.472 112.48 328.08 114.224 328.08C115.968 328.08 117.368 328.472 118.424 329.256C119.48 330.04 120.008 331.096 120.008 332.424C120.008 333.336 119.744 334.12 119.216 334.776C118.704 335.416 117.96 335.896 116.984 336.216ZM109.712 332.448C109.712 333.456 110.104 334.256 110.888 334.848C111.688 335.44 112.8 335.736 114.224 335.736C115.648 335.736 116.76 335.448 117.56 334.872C118.376 334.28 118.784 333.48 118.784 332.472C118.784 331.448 118.368 330.64 117.536 330.048C116.72 329.44 115.616 329.136 114.224 329.136C112.832 329.136 111.728 329.432 110.912 330.024C110.112 330.616 109.712 331.424 109.712 332.448ZM114.224 344.064C115.84 344.064 117.104 343.736 118.016 343.08C118.928 342.424 119.384 341.528 119.384 340.392C119.384 339.272 118.928 338.384 118.016 337.728C117.104 337.072 115.84 336.744 114.224 336.744C112.624 336.744 111.368 337.072 110.456 337.728C109.56 338.384 109.112 339.272 109.112 340.392C109.112 341.528 109.56 342.424 110.456 343.08C111.352 343.736 112.608 344.064 114.224 344.064Z" fill="black"/>
<path d="M12.528 343.896V345H0.984V344.136L8.088 337.08C9.016 336.152 9.64 335.36 9.96 334.704C10.296 334.032 10.464 333.344 10.464 332.64C10.464 331.568 10.096 330.728 9.36 330.12C8.64 329.512 7.592 329.208 6.216 329.208C5.16 329.208 4.232 329.368 3.432 329.688C2.648 330.008 1.968 330.496 1.392 331.152L0.528 330.384C1.168 329.648 1.976 329.08 2.952 328.68C3.944 328.28 5.064 328.08 6.312 328.08C7.96 328.08 9.272 328.48 10.248 329.28C11.224 330.08 11.712 331.16 11.712 332.52C11.712 333.384 11.52 334.208 11.136 334.992C10.752 335.776 10.032 336.688 8.976 337.728L2.784 343.896H12.528ZM21.3257 345.12C20.0457 345.12 18.9017 344.776 17.8937 344.088C16.9017 343.384 16.1257 342.392 15.5657 341.112C15.0217 339.832 14.7497 338.328 14.7497 336.6C14.7497 334.872 15.0217 333.368 15.5657 332.088C16.1257 330.808 16.9017 329.824 17.8937 329.136C18.9017 328.432 20.0457 328.08 21.3257 328.08C22.6057 328.08 23.7417 328.432 24.7337 329.136C25.7417 329.824 26.5177 330.808 27.0617 332.088C27.6217 333.368 27.9017 334.872 27.9017 336.6C27.9017 338.328 27.6217 339.832 27.0617 341.112C26.5177 342.392 25.7417 343.384 24.7337 344.088C23.7417 344.776 22.6057 345.12 21.3257 345.12ZM21.3257 343.992C22.3817 343.992 23.3097 343.704 24.1097 343.128C24.9257 342.536 25.5577 341.688 26.0057 340.584C26.4537 339.464 26.6777 338.136 26.6777 336.6C26.6777 335.064 26.4537 333.744 26.0057 332.64C25.5577 331.52 24.9257 330.672 24.1097 330.096C23.3097 329.504 22.3817 329.208 21.3257 329.208C20.2697 329.208 19.3337 329.504 18.5177 330.096C17.7177 330.672 17.0937 331.52 16.6457 332.64C16.1977 333.744 15.9737 335.064 15.9737 336.6C15.9737 338.136 16.1977 339.464 16.6457 340.584C17.0937 341.688 17.7177 342.536 18.5177 343.128C19.3337 343.704 20.2697 343.992 21.3257 343.992ZM34.7471 328.2V345H33.5231V329.304H29.4191V328.2H34.7471ZM50.5281 328.2V329.064L43.3041 345H41.9601L49.1121 329.304H39.6801V332.52H38.4801V328.2H50.5281Z" fill="black"/>
</svg>
