<svg width="208" height="329" viewBox="0 0 208 329" fill="none" xmlns="http://www.w3.org/2000/svg">
<rect x="20.1111" y="123.889" width="168.333" height="204.444" rx="20" fill="#7F2BC1"/>
<g filter="url(#filter0_d)">
<circle cx="104" cy="100" r="100" fill="white"/>
</g>
<g clip-path="url(#clip0)">
<path d="M103.138 89.0622C101.987 87.9111 100.116 87.9052 98.959 89.0563L89.243 98.7781L85.4299 94.959C84.2788 93.808 82.4076 93.808 81.2566 94.959C80.1056 96.1101 80.1056 97.9813 81.2566 99.1323L87.1594 105.035C87.7319 105.614 88.4875 105.903 89.243 105.903C89.9986 105.903 90.7542 105.614 91.3326 105.041L103.138 93.2354C104.289 92.0844 104.289 90.2132 103.138 89.0622Z" fill="#7F2BC1"/>
<path d="M103.138 112.673C101.987 111.522 100.116 111.516 98.959 112.667L89.243 122.389L85.4299 118.576C84.2788 117.425 82.4076 117.425 81.2566 118.576C80.1056 119.727 80.1056 121.598 81.2566 122.749L87.1594 128.652C87.7319 129.225 88.4875 129.514 89.243 129.514C89.9986 129.514 90.7542 129.225 91.3326 128.652L103.138 116.847C104.289 115.695 104.289 113.824 103.138 112.673Z" fill="#7F2BC1"/>
<path d="M124.66 94.0972H112.854C111.225 94.0972 109.903 95.4195 109.903 97.0486C109.903 98.6778 111.225 100 112.854 100H124.66C126.289 100 127.611 98.6778 127.611 97.0486C127.611 95.4195 126.289 94.0972 124.66 94.0972Z" fill="#7F2BC1"/>
<path d="M124.66 117.708H112.854C111.225 117.708 109.903 119.031 109.903 120.66C109.903 122.289 111.225 123.611 112.854 123.611H124.66C126.289 123.611 127.611 122.289 127.611 120.66C127.611 119.031 126.289 117.708 124.66 117.708Z" fill="#7F2BC1"/>
<path d="M133.514 64.5833H121.708V61.6319C121.708 60.0028 120.386 58.6805 118.757 58.6805H112.352C111.131 55.2451 107.849 52.7778 104 52.7778C100.151 52.7778 96.8694 55.2451 95.6476 58.6805H89.243C87.6139 58.6805 86.2916 60.0028 86.2916 61.6319V64.5833H74.4861C71.2337 64.5833 68.5833 67.2337 68.5833 70.4861V141.319C68.5833 144.572 71.2337 147.222 74.4861 147.222H133.514C136.766 147.222 139.417 144.572 139.417 141.319V70.4861C139.417 67.2337 136.766 64.5833 133.514 64.5833ZM92.1944 64.5833H98.0972C99.7264 64.5833 101.049 63.2611 101.049 61.6319C101.049 60.0028 102.371 58.6805 104 58.6805C105.629 58.6805 106.951 60.0028 106.951 61.6319C106.951 63.2611 108.274 64.5833 109.903 64.5833H115.806V70.4861H92.1944V64.5833ZM133.514 141.319H74.4861V70.4861H86.2916V73.4375C86.2916 75.0667 87.6139 76.3889 89.243 76.3889H118.757C120.386 76.3889 121.708 75.0667 121.708 73.4375V70.4861H133.514V141.319Z" fill="#7F2BC1"/>
</g>
<defs>
<filter id="filter0_d" x="0" y="0" width="208" height="212" filterUnits="userSpaceOnUse" color-interpolation-filters="sRGB">
<feFlood flood-opacity="0" result="BackgroundImageFix"/>
<feColorMatrix in="SourceAlpha" type="matrix" values="0 0 0 0 0 0 0 0 0 0 0 0 0 0 0 0 0 0 127 0"/>
<feOffset dy="8"/>
<feGaussianBlur stdDeviation="2"/>
<feColorMatrix type="matrix" values="0 0 0 0 0 0 0 0 0 0 0 0 0 0 0 0 0 0 0.25 0"/>
<feBlend mode="normal" in2="BackgroundImageFix" result="effect1_dropShadow"/>
<feBlend mode="normal" in="SourceGraphic" in2="effect1_dropShadow" result="shape"/>
</filter>
<clipPath id="clip0">
<rect width="94.4444" height="94.4444" fill="white" transform="translate(56.7778 52.7778)"/>
</clipPath>
</defs>
</svg>
