<svg width="380" height="111" viewBox="0 0 380 111" fill="none" xmlns="http://www.w3.org/2000/svg">
<g clip-path="url(#clip0)">
<path d="M41.8544 12.7462L31.7148 10.2829C31.4782 10.2233 31.2283 10.2477 31.0078 10.3519C16.062 17.312 1.97995 39.7198 1.38831 40.6708C1.15783 41.0394 1.17239 41.5107 1.42517 41.8644C1.67938 42.2189 2.12268 42.3843 2.54696 42.2832L12.1354 40.053L14.4638 51.7788C14.5567 52.266 14.971 52.6262 15.4664 52.6504L15.5458 52.6479C16.0113 52.6327 16.4138 52.319 16.5425 51.8714C16.6203 51.609 24.3056 25.3952 34.4202 19.6762L42.1809 14.6916C42.6799 14.371 42.8245 13.7065 42.5038 13.2075C42.3543 12.9749 42.1209 12.8089 41.8521 12.7441L41.8544 12.7462Z" fill="#FFD54F"/>
<path d="M51.739 8.55138C51.5869 8.10601 51.1577 7.81566 50.6876 7.84035L43.1817 8.13017L40.7001 1.04649C40.4358 0.489145 39.7697 0.251541 39.2123 0.515849C38.9581 0.636419 38.7587 0.848471 38.6541 1.10968L36.61 8.33312L29.094 8.50721C28.6257 8.5112 28.2181 8.8285 28.0993 9.28143C27.9688 9.731 28.1445 10.2133 28.5337 10.4736L34.7721 14.6475L32.6303 21.8395C32.4596 22.4076 32.7816 23.0065 33.3497 23.1772C33.6847 23.2779 34.0478 23.2091 34.3228 22.9928L40.2093 18.3498L46.384 22.6204C46.872 22.9575 47.5409 22.8355 47.8781 22.3475C48.077 22.0597 48.1232 21.693 48.0021 21.3648L45.4206 14.3187L51.3895 9.76773C51.758 9.48115 51.8992 8.98965 51.739 8.55138Z" fill="#FFC107"/>
<path d="M15.0153 35.4728C14.4225 35.4912 13.927 35.0254 13.9087 34.4325C13.9015 34.2002 13.9699 33.9719 14.1035 33.7818C14.5768 33.1032 15.1191 32.2935 15.7147 31.4026C18.6953 26.9461 22.7808 20.8351 26.7918 18.0874C27.2811 17.7519 27.9497 17.8765 28.2853 18.3657C28.6208 18.855 28.4962 19.5237 28.0069 19.8592C24.337 22.3772 20.2204 28.5278 17.5053 32.6023C16.9015 33.5062 16.351 34.3291 15.8715 35.0166C15.6751 35.2962 15.3571 35.4656 15.0153 35.4728Z" fill="#FFB300"/>
</g>
<path d="M55.472 52.248C55.472 53.24 55.296 53.976 54.944 54.456C54.592 54.936 54.032 55.4 53.264 55.848C52.816 56.104 52.256 56.36 51.584 56.616C50.912 56.84 50.176 57.032 49.376 57.192C48.576 57.384 47.728 57.528 46.832 57.624C45.968 57.72 45.104 57.768 44.24 57.768C41.936 57.768 39.776 57.464 37.76 56.856C35.744 56.216 33.984 55.272 32.48 54.024C31.008 52.744 29.84 51.16 28.976 49.272C28.112 47.384 27.68 45.192 27.68 42.696C27.68 40.072 28.144 37.784 29.072 35.832C30.032 33.88 31.28 32.264 32.816 30.984C34.384 29.672 36.16 28.696 38.144 28.056C40.16 27.416 42.224 27.096 44.336 27.096C47.376 27.096 49.776 27.592 51.536 28.584C53.328 29.544 54.224 30.808 54.224 32.376C54.224 33.208 54.016 33.928 53.6 34.536C53.184 35.144 52.704 35.624 52.16 35.976C51.36 35.496 50.352 35.032 49.136 34.584C47.952 34.104 46.608 33.864 45.104 33.864C42.416 33.864 40.272 34.632 38.672 36.168C37.104 37.704 36.32 39.832 36.32 42.552C36.32 44.024 36.528 45.304 36.944 46.392C37.392 47.448 37.984 48.328 38.72 49.032C39.456 49.704 40.304 50.216 41.264 50.568C42.224 50.888 43.248 51.048 44.336 51.048C45.04 51.048 45.664 50.984 46.208 50.856C46.752 50.728 47.168 50.584 47.456 50.424V45.912H42.32C42.128 45.56 41.936 45.096 41.744 44.52C41.584 43.944 41.504 43.336 41.504 42.696C41.504 41.544 41.76 40.712 42.272 40.2C42.816 39.688 43.504 39.432 44.336 39.432H52.448C53.408 39.432 54.144 39.704 54.656 40.248C55.2 40.76 55.472 41.496 55.472 42.456V52.248ZM69.395 56.808C69.043 56.904 68.483 57 67.715 57.096C66.979 57.192 66.243 57.24 65.507 57.24C64.771 57.24 64.115 57.176 63.539 57.048C62.995 56.952 62.531 56.76 62.147 56.472C61.763 56.184 61.475 55.784 61.283 55.272C61.091 54.76 60.995 54.088 60.995 53.256V27.912C61.347 27.848 61.907 27.768 62.675 27.672C63.443 27.544 64.179 27.48 64.883 27.48C65.619 27.48 66.259 27.544 66.803 27.672C67.379 27.768 67.859 27.96 68.243 28.248C68.627 28.536 68.915 28.936 69.107 29.448C69.299 29.96 69.395 30.632 69.395 31.464V56.808ZM96.068 27.912C96.292 28.264 96.484 28.744 96.644 29.352C96.836 29.928 96.932 30.536 96.932 31.176C96.932 32.424 96.66 33.32 96.116 33.864C95.604 34.376 94.9 34.632 94.004 34.632H83.924V40.056H94.436C94.692 40.408 94.9 40.872 95.06 41.448C95.252 42.024 95.348 42.632 95.348 43.272C95.348 44.488 95.076 45.368 94.532 45.912C94.02 46.424 93.316 46.68 92.42 46.68H84.02V56.808C83.668 56.904 83.108 57 82.34 57.096C81.604 57.192 80.868 57.24 80.132 57.24C79.396 57.24 78.74 57.176 78.164 57.048C77.62 56.952 77.156 56.76 76.772 56.472C76.388 56.184 76.1 55.784 75.908 55.272C75.716 54.76 75.62 54.088 75.62 53.256V32.376C75.62 31 76.02 29.912 76.82 29.112C77.62 28.312 78.708 27.912 80.084 27.912H96.068ZM100.432 34.632C100.208 34.28 100 33.8 99.8083 33.192C99.6163 32.584 99.5203 31.944 99.5203 31.272C99.5203 30.024 99.7923 29.128 100.336 28.584C100.912 28.04 101.648 27.768 102.544 27.768H123.472C123.696 28.12 123.904 28.6 124.096 29.208C124.288 29.816 124.384 30.456 124.384 31.128C124.384 32.376 124.096 33.272 123.52 33.816C122.976 34.36 122.256 34.632 121.36 34.632H116.032V56.808C115.68 56.904 115.12 57 114.352 57.096C113.616 57.192 112.88 57.24 112.144 57.24C111.408 57.24 110.752 57.176 110.176 57.048C109.632 56.952 109.168 56.76 108.784 56.472C108.4 56.184 108.112 55.784 107.92 55.272C107.728 54.76 107.632 54.088 107.632 53.256V34.632H100.432Z" fill="#5D208D"/>
<path d="M147.504 50.04C147.504 52.472 146.592 54.376 144.768 55.752C142.944 57.128 140.256 57.816 136.704 57.816C135.36 57.816 134.112 57.72 132.96 57.528C131.808 57.336 130.816 57.048 129.984 56.664C129.184 56.248 128.544 55.736 128.064 55.128C127.616 54.52 127.392 53.8 127.392 52.968C127.392 52.2 127.552 51.56 127.872 51.048C128.192 50.504 128.576 50.056 129.024 49.704C129.952 50.216 131.008 50.68 132.192 51.096C133.408 51.48 134.8 51.672 136.368 51.672C137.36 51.672 138.112 51.528 138.624 51.24C139.168 50.952 139.44 50.568 139.44 50.088C139.44 49.64 139.248 49.288 138.864 49.032C138.48 48.776 137.84 48.568 136.944 48.408L135.504 48.12C132.72 47.576 130.64 46.728 129.264 45.576C127.92 44.392 127.248 42.712 127.248 40.536C127.248 39.352 127.504 38.28 128.016 37.32C128.528 36.36 129.248 35.56 130.176 34.92C131.104 34.28 132.208 33.784 133.488 33.432C134.8 33.08 136.24 32.904 137.808 32.904C138.992 32.904 140.096 33 141.12 33.192C142.176 33.352 143.088 33.608 143.856 33.96C144.624 34.312 145.232 34.776 145.68 35.352C146.128 35.896 146.352 36.552 146.352 37.32C146.352 38.056 146.208 38.696 145.92 39.24C145.664 39.752 145.328 40.184 144.912 40.536C144.656 40.376 144.272 40.216 143.76 40.056C143.248 39.864 142.688 39.704 142.08 39.576C141.472 39.416 140.848 39.288 140.208 39.192C139.6 39.096 139.04 39.048 138.528 39.048C137.472 39.048 136.656 39.176 136.08 39.432C135.504 39.656 135.216 40.024 135.216 40.536C135.216 40.888 135.376 41.176 135.696 41.4C136.016 41.624 136.624 41.832 137.52 42.024L139.008 42.36C142.08 43.064 144.256 44.04 145.536 45.288C146.848 46.504 147.504 48.088 147.504 50.04ZM164.02 57.768C162.132 57.768 160.372 57.512 158.74 57C157.14 56.456 155.732 55.656 154.516 54.6C153.332 53.544 152.388 52.216 151.684 50.616C151.012 49.016 150.676 47.144 150.676 45C150.676 42.888 151.012 41.08 151.684 39.576C152.388 38.04 153.3 36.792 154.42 35.832C155.54 34.84 156.82 34.12 158.26 33.672C159.7 33.192 161.172 32.952 162.676 32.952C164.372 32.952 165.908 33.208 167.284 33.72C168.692 34.232 169.892 34.936 170.884 35.832C171.908 36.728 172.692 37.8 173.236 39.048C173.812 40.296 174.1 41.656 174.1 43.128C174.1 44.216 173.796 45.048 173.188 45.624C172.58 46.2 171.732 46.568 170.644 46.728L158.788 48.504C159.14 49.56 159.86 50.36 160.948 50.904C162.036 51.416 163.284 51.672 164.692 51.672C166.004 51.672 167.236 51.512 168.388 51.192C169.572 50.84 170.532 50.44 171.268 49.992C171.78 50.312 172.212 50.76 172.564 51.336C172.916 51.912 173.092 52.52 173.092 53.16C173.092 54.6 172.42 55.672 171.076 56.376C170.052 56.92 168.9 57.288 167.62 57.48C166.34 57.672 165.14 57.768 164.02 57.768ZM162.676 38.904C161.908 38.904 161.236 39.032 160.66 39.288C160.116 39.544 159.668 39.88 159.316 40.296C158.964 40.68 158.692 41.128 158.5 41.64C158.34 42.12 158.244 42.616 158.212 43.128L166.42 41.784C166.324 41.144 165.972 40.504 165.364 39.864C164.756 39.224 163.86 38.904 162.676 38.904ZM186.187 56.952C185.867 57.048 185.355 57.144 184.651 57.24C183.979 57.336 183.275 57.384 182.539 57.384C181.835 57.384 181.195 57.336 180.619 57.24C180.075 57.144 179.611 56.952 179.227 56.664C178.843 56.376 178.539 55.992 178.315 55.512C178.123 55 178.027 54.344 178.027 53.544V39.144C178.027 38.408 178.155 37.784 178.411 37.272C178.699 36.728 179.099 36.248 179.611 35.832C180.123 35.416 180.747 35.048 181.483 34.728C182.251 34.376 183.067 34.072 183.931 33.816C184.795 33.56 185.691 33.368 186.619 33.24C187.547 33.08 188.475 33 189.403 33C190.939 33 192.155 33.304 193.051 33.912C193.947 34.488 194.395 35.448 194.395 36.792C194.395 37.24 194.331 37.688 194.203 38.136C194.075 38.552 193.915 38.936 193.723 39.288C193.051 39.288 192.363 39.32 191.659 39.384C190.955 39.448 190.267 39.544 189.595 39.672C188.923 39.8 188.283 39.944 187.675 40.104C187.099 40.232 186.603 40.392 186.187 40.584V56.952ZM214.112 56.376C213.664 56.728 213.008 57.016 212.144 57.24C211.28 57.464 210.304 57.576 209.216 57.576C207.968 57.576 206.88 57.416 205.952 57.096C205.056 56.776 204.432 56.264 204.08 55.56C203.792 55.016 203.44 54.264 203.024 53.304C202.64 52.312 202.224 51.224 201.776 50.04C201.328 48.824 200.864 47.528 200.384 46.152C199.904 44.776 199.44 43.416 198.992 42.072C198.576 40.728 198.192 39.432 197.84 38.184C197.488 36.936 197.2 35.832 196.976 34.872C197.424 34.424 198.016 34.04 198.752 33.72C199.52 33.368 200.352 33.192 201.248 33.192C202.368 33.192 203.28 33.432 203.984 33.912C204.72 34.36 205.264 35.224 205.616 36.504L207.488 43.848C207.84 45.288 208.176 46.6 208.496 47.784C208.816 48.936 209.056 49.832 209.216 50.472H209.456C210.064 48.104 210.704 45.48 211.376 42.6C212.048 39.72 212.656 36.888 213.2 34.104C213.744 33.816 214.352 33.592 215.024 33.432C215.728 33.272 216.4 33.192 217.04 33.192C218.16 33.192 219.104 33.432 219.872 33.912C220.64 34.392 221.024 35.224 221.024 36.408C221.024 36.92 220.896 37.672 220.64 38.664C220.416 39.624 220.112 40.728 219.728 41.976C219.376 43.192 218.944 44.488 218.432 45.864C217.952 47.24 217.456 48.584 216.944 49.896C216.432 51.208 215.92 52.44 215.408 53.592C214.928 54.712 214.496 55.64 214.112 56.376ZM224.476 27.192C224.476 25.976 224.876 24.952 225.676 24.12C226.508 23.288 227.596 22.872 228.94 22.872C230.284 22.872 231.356 23.288 232.156 24.12C232.988 24.952 233.404 25.976 233.404 27.192C233.404 28.408 232.988 29.432 232.156 30.264C231.356 31.096 230.284 31.512 228.94 31.512C227.596 31.512 226.508 31.096 225.676 30.264C224.876 29.432 224.476 28.408 224.476 27.192ZM233.02 56.952C232.668 57.016 232.14 57.096 231.436 57.192C230.764 57.32 230.076 57.384 229.372 57.384C228.668 57.384 228.028 57.336 227.452 57.24C226.908 57.144 226.444 56.952 226.06 56.664C225.676 56.376 225.372 55.992 225.148 55.512C224.956 55 224.86 54.344 224.86 53.544V34.008C225.212 33.944 225.724 33.864 226.396 33.768C227.1 33.64 227.804 33.576 228.508 33.576C229.212 33.576 229.836 33.624 230.38 33.72C230.956 33.816 231.436 34.008 231.82 34.296C232.204 34.584 232.492 34.984 232.684 35.496C232.908 35.976 233.02 36.616 233.02 37.416V56.952ZM251.367 39.384C250.567 39.384 249.799 39.512 249.063 39.768C248.359 40.024 247.735 40.408 247.191 40.92C246.679 41.4 246.263 42.008 245.943 42.744C245.623 43.48 245.463 44.344 245.463 45.336C245.463 47.32 246.023 48.808 247.143 49.8C248.295 50.792 249.687 51.288 251.319 51.288C252.279 51.288 253.111 51.176 253.815 50.952C254.519 50.728 255.143 50.488 255.687 50.232C256.327 50.68 256.807 51.176 257.127 51.72C257.447 52.232 257.607 52.856 257.607 53.592C257.607 54.904 256.983 55.928 255.735 56.664C254.487 57.368 252.759 57.72 250.551 57.72C248.535 57.72 246.711 57.432 245.079 56.856C243.447 56.248 242.039 55.416 240.855 54.36C239.703 53.272 238.807 51.976 238.167 50.472C237.527 48.968 237.207 47.304 237.207 45.48C237.207 43.368 237.543 41.528 238.215 39.96C238.919 38.36 239.863 37.048 241.047 36.024C242.231 35 243.591 34.232 245.127 33.72C246.695 33.208 248.343 32.952 250.071 32.952C252.375 32.952 254.151 33.368 255.399 34.2C256.647 35.032 257.271 36.104 257.271 37.416C257.271 38.024 257.127 38.6 256.839 39.144C256.551 39.656 256.215 40.104 255.831 40.488C255.287 40.232 254.631 39.992 253.863 39.768C253.095 39.512 252.263 39.384 251.367 39.384ZM273.332 57.768C271.444 57.768 269.684 57.512 268.052 57C266.452 56.456 265.044 55.656 263.828 54.6C262.644 53.544 261.7 52.216 260.996 50.616C260.324 49.016 259.988 47.144 259.988 45C259.988 42.888 260.324 41.08 260.996 39.576C261.7 38.04 262.612 36.792 263.732 35.832C264.852 34.84 266.132 34.12 267.572 33.672C269.012 33.192 270.484 32.952 271.988 32.952C273.684 32.952 275.22 33.208 276.596 33.72C278.004 34.232 279.204 34.936 280.196 35.832C281.22 36.728 282.004 37.8 282.548 39.048C283.124 40.296 283.412 41.656 283.412 43.128C283.412 44.216 283.108 45.048 282.5 45.624C281.892 46.2 281.044 46.568 279.956 46.728L268.1 48.504C268.452 49.56 269.172 50.36 270.26 50.904C271.348 51.416 272.596 51.672 274.004 51.672C275.316 51.672 276.548 51.512 277.7 51.192C278.884 50.84 279.844 50.44 280.58 49.992C281.092 50.312 281.524 50.76 281.876 51.336C282.228 51.912 282.404 52.52 282.404 53.16C282.404 54.6 281.732 55.672 280.388 56.376C279.364 56.92 278.212 57.288 276.932 57.48C275.652 57.672 274.452 57.768 273.332 57.768ZM271.988 38.904C271.22 38.904 270.548 39.032 269.972 39.288C269.428 39.544 268.98 39.88 268.628 40.296C268.276 40.68 268.004 41.128 267.812 41.64C267.652 42.12 267.556 42.616 267.524 43.128L275.732 41.784C275.636 41.144 275.284 40.504 274.676 39.864C274.068 39.224 273.172 38.904 271.988 38.904Z" fill="#9454C7"/>
<defs>
<clipPath id="clip0">
<rect width="51.5538" height="51.5538" fill="white" transform="translate(0 1.59134) rotate(-1.76887)"/>
</clipPath>
</defs>
</svg>
