<svg width="472" height="472" viewBox="0 0 472 472" fill="none" xmlns="http://www.w3.org/2000/svg">
<path d="M103.288 403.635C140.39 440.737 189.718 461.169 242.187 461.169C294.657 461.169 343.985 440.737 381.087 403.635C418.189 366.533 438.621 317.205 438.621 264.736C438.621 212.266 418.189 162.938 381.087 125.836C343.985 88.734 294.657 68.3016 242.187 68.3016C208.589 68.3016 175.428 76.933 146.29 93.2612C143.269 94.9539 142.193 98.7748 143.885 101.795C145.577 104.815 149.398 105.892 152.42 104.199C179.689 88.918 210.73 80.8399 242.187 80.8399C343.588 80.8399 426.083 163.335 426.083 264.736C426.083 366.136 343.588 448.631 242.187 448.631C140.787 448.631 58.2919 366.136 58.2919 264.736C58.2919 233.281 66.3741 202.237 81.6641 174.959C83.3568 171.938 82.281 168.118 79.261 166.425C76.2426 164.734 72.42 165.807 70.7274 168.828C54.3891 197.975 45.7535 231.139 45.7535 264.736C45.7535 317.205 66.186 366.533 103.288 403.635Z" fill="#7F2BC1" fill-opacity="0.77"/>
<path d="M221.203 141.969C188.76 149.54 162.421 169.6 146.085 195.879C129.749 222.158 123.415 254.656 130.985 287.099C146.124 351.985 211.227 392.456 276.113 377.317C323.013 366.374 358.91 328.684 367.566 281.299C367.704 280.541 367.684 279.761 367.51 279.01C366.804 275.987 363.782 274.109 360.76 274.815C358.469 275.35 356.835 277.216 356.486 279.406C348.594 322.329 316.057 356.455 273.56 366.37C214.711 380.101 155.663 343.395 141.932 284.545C135.066 255.116 140.807 225.647 155.628 201.811C170.445 177.98 194.337 159.78 223.758 152.916C266.296 142.991 310.619 159.238 336.68 194.308C338.531 196.8 342.051 197.318 344.544 195.467C347.035 193.614 347.554 190.094 345.702 187.603C316.969 148.939 268.101 131.027 221.203 141.969Z" fill="#F5BA3D" fill-opacity="0.48"/>
<path d="M241.866 322.131C256.158 323.951 269.857 319.789 280.439 311.599C291.021 303.409 298.486 291.19 300.307 276.899C303.948 248.317 283.658 222.101 255.076 218.459C234.416 215.827 214.185 225.695 203.536 243.598C203.366 243.884 203.256 244.203 203.214 244.534C203.044 245.866 203.986 247.082 205.317 247.252C206.327 247.38 207.27 246.87 207.742 246.035C217.409 229.826 235.741 220.896 254.461 223.281C280.384 226.584 298.787 250.361 295.484 276.285C293.832 289.248 287.065 300.328 277.465 307.756C267.868 315.183 255.44 318.96 242.48 317.309C223.742 314.921 208.225 301.656 202.946 283.514C202.571 282.225 201.222 281.484 199.933 281.859C198.644 282.234 197.903 283.583 198.278 284.872C204.099 304.874 221.208 319.499 241.866 322.131Z" fill="#7F2BC1" fill-opacity="0.1"/>
<path d="M140.109 366.989C139.902 367.659 140.038 368.387 140.473 368.934L147.105 377.321C148.198 378.701 147.232 380.74 145.468 380.769L134.779 380.93C134.078 380.939 133.428 381.294 133.04 381.879L127.117 390.777C126.138 392.244 123.902 391.952 123.333 390.286L122.823 388.796L119.873 380.169C119.647 379.507 119.108 379 118.434 378.81L108.14 375.926C106.443 375.449 106.027 373.233 107.439 372.173L115.989 365.759C116.552 365.339 116.868 364.67 116.839 363.97L116.403 353.288C116.33 351.529 118.311 350.449 119.752 351.462L128.496 357.613C129.068 358.016 129.804 358.112 130.46 357.867L133.559 356.717L140.483 354.152C142.137 353.54 143.775 355.088 143.256 356.774L140.109 366.989Z" fill="#FED370"/>
<path d="M284.648 70.2809C284.223 71.661 284.507 73.1586 285.403 74.2902L299.065 91.5825C301.318 94.4332 299.336 98.6269 295.705 98.6815L273.717 98.9931C272.271 99.0128 270.935 99.7417 270.14 100.943L257.97 119.262C255.96 122.283 251.36 121.677 250.184 118.242L249.133 115.175L243.042 97.3931C242.578 96.0264 241.468 94.9791 240.08 94.588L218.895 88.6195C215.403 87.6372 214.542 83.069 217.443 80.888L235.023 67.6922C236.176 66.8287 236.825 65.4514 236.766 64.0089L235.844 41.999C235.691 38.3708 239.76 36.1517 242.73 38.2437L260.737 50.9355C261.913 51.7685 263.427 51.9665 264.778 51.4643L271.149 49.1049L285.389 43.831C288.79 42.5751 292.169 45.77 291.1 49.2401L284.648 70.2809Z" fill="#FED370"/>
<path d="M159.028 212.763C158.635 214.036 158.895 215.416 159.721 216.456L172.307 232.374C174.381 234.996 172.546 238.861 169.201 238.916L148.916 239.225C147.581 239.244 146.349 239.916 145.615 241.025L134.37 257.913C132.511 260.696 128.27 260.145 127.189 256.981L126.222 254.155L120.622 237.78C120.193 236.524 119.17 235.558 117.889 235.2L98.3532 229.724C95.1323 228.821 94.3441 224.616 97.0223 222.602L113.252 210.431C114.317 209.633 114.917 208.364 114.865 207.035L114.037 186.76C113.897 183.42 117.655 181.37 120.393 183.293L136.99 194.968C138.074 195.734 139.47 195.914 140.717 195.452L146.595 193.271L159.737 188.398C162.877 187.239 165.989 190.178 165.001 193.375L159.028 212.763Z" fill="#FED370"/>
<path d="M159.152 212.72C158.76 213.993 159.02 215.373 159.845 216.413L172.431 232.331C174.506 234.953 172.671 238.818 169.326 238.873L149.041 239.181C147.706 239.2 146.474 239.872 145.74 240.981L134.495 257.869C132.636 260.653 128.394 260.101 127.314 256.938L126.347 254.112C147.552 227.253 149.809 206.9 146.722 193.227L159.864 188.354C163.002 187.196 166.114 190.135 165.125 193.332L159.152 212.72Z" fill="#FDA736"/>
<path d="M291.126 307.985C290.889 308.748 291.047 309.577 291.541 310.202L299.099 319.758C300.343 321.331 299.242 323.653 297.234 323.685L285.054 323.872C284.254 323.884 283.513 324.287 283.073 324.952L276.321 335.09C275.207 336.761 272.659 336.431 272.01 334.532L271.43 332.835L268.068 323.004C267.811 322.25 267.196 321.67 266.427 321.455L254.698 318.166C252.765 317.624 252.292 315.1 253.899 313.891L263.643 306.584C264.283 306.105 264.642 305.344 264.611 304.545L264.114 292.373C264.031 290.366 266.287 289.136 267.931 290.291L277.895 297.3C278.546 297.761 279.384 297.869 280.133 297.591L283.663 296.281L291.552 293.355C293.438 292.66 295.305 294.425 294.712 296.343L291.126 307.985Z" fill="#FED370"/>
<path d="M291.311 308.369C291.074 309.132 291.232 309.962 291.727 310.587L299.284 320.142C300.529 321.716 299.427 324.037 297.419 324.069L285.24 324.256C284.439 324.268 283.699 324.672 283.259 325.337L276.506 335.475C275.392 337.146 272.844 336.815 272.195 334.917L271.615 333.22C284.346 317.095 285.702 304.875 283.848 296.665L291.737 293.74C293.622 293.043 295.49 294.808 294.897 296.728L291.311 308.369Z" fill="#FDA736"/>
<g clip-path="url(#clip0)">
<path d="M158.382 111.07H41.5764C40.3528 111.07 39.3616 111.999 39.3616 113.145V177.538C39.3616 178.684 40.3528 179.613 41.5764 179.613H158.382C159.606 179.613 160.597 178.684 160.597 177.538V113.146C160.597 111.999 159.605 111.07 158.382 111.07Z" fill="#7F2BC1"/>
<path d="M158.382 111.07H41.5764C40.3528 111.07 39.3616 111.999 39.3616 113.145V121.447H160.597V113.145C160.597 111.999 159.605 111.07 158.382 111.07Z" fill="#5D208D"/>
<path d="M111.295 111.07H88.6642C87.4406 111.07 86.4493 111.999 86.4493 113.145V177.538C86.4493 178.684 87.4406 179.613 88.6642 179.613H111.295C112.518 179.613 113.509 178.684 113.509 177.538V113.146C113.509 111.999 112.518 111.07 111.295 111.07Z" fill="#FFDB57"/>
<path d="M111.295 111.07H88.6642C87.4406 111.07 86.4493 111.999 86.4493 113.145V121.402H113.509V113.145C113.509 111.999 112.518 111.07 111.295 111.07Z" fill="#F5BA3D"/>
<path d="M154.067 72.7328C151.895 67.4288 148.468 62.2486 144.9 58.8751C143.591 57.6375 141.828 57.0101 139.821 57.0504C133.171 57.1954 122.334 65.0157 107.612 80.2938C107.245 80.6751 107.041 81.1708 107.041 81.6847V92.6621C107.041 93.8083 108.032 94.7374 109.256 94.7374H143.326C150.918 94.7374 154.051 91.2769 155.342 88.3737C157.065 84.5037 156.612 78.9487 154.067 72.7328Z" fill="#FFDB57"/>
<path d="M155.335 76.3489C155.273 76.1358 155.175 75.9333 155.045 75.7492C151.7 71.011 144.474 72.7839 139 75.1054C123.099 81.8498 116.532 91.14 116.26 91.532C115.818 92.1705 115.784 92.984 116.171 93.6528C116.559 94.3215 117.306 94.7376 118.118 94.7376H143.327C148.158 94.7376 151.74 93.3483 153.975 90.6084C156.629 87.3532 157.1 82.4222 155.335 76.3489Z" fill="#EF9325"/>
<path d="M92.3457 80.2941C77.6238 65.016 66.7872 57.1957 60.1371 57.0506C58.125 57.0101 56.3668 57.6377 55.0578 58.8754C51.49 62.2486 48.063 67.4291 45.8914 72.7331C43.3464 78.9489 42.8929 84.5037 44.6146 88.3742C45.9062 91.2774 49.0392 94.7379 56.631 94.7379H90.7015C91.9251 94.7379 92.9164 93.8086 92.9164 92.6626V81.685C92.9167 81.171 92.7136 80.6753 92.3457 80.2941Z" fill="#FFDB57"/>
<path d="M83.6985 91.5321C83.4267 91.1401 76.8599 81.8495 60.9582 75.1054C55.4843 72.7839 48.2578 71.0118 44.9133 75.749C44.7834 75.9333 44.6856 76.1356 44.6237 76.3489C42.8584 82.4223 43.3291 87.3533 45.9837 90.6081C48.2181 93.3481 51.8004 94.7374 56.6312 94.7374H81.8409C82.653 94.7374 83.3999 94.3213 83.7873 93.6525C84.1747 92.984 84.1407 92.1705 83.6985 91.5321Z" fill="#EF9325"/>
<path d="M109.256 77.5583H90.7018C89.4782 77.5583 88.4869 78.4876 88.4869 79.6336V92.6626C88.4869 93.8088 89.4782 94.7379 90.7018 94.7379H109.256C110.48 94.7379 111.471 93.8086 111.471 92.6626V79.6336C111.471 78.4873 110.48 77.5583 109.256 77.5583Z" fill="#F5BA3D"/>
<path d="M167.904 90.5912H32.0544C30.8308 90.5912 29.8396 91.5205 29.8396 92.6665V113.145C29.8396 114.292 30.8308 115.221 32.0544 115.221H167.904C169.127 115.221 170.119 114.291 170.119 113.145V92.6665C170.119 91.5202 169.127 90.5912 167.904 90.5912Z" fill="#7F2BC1"/>
<path d="M116.993 90.5904H82.9653V115.22H116.993V90.5904Z" fill="#FFDB57"/>
</g>
<g opacity="0.9" clip-path="url(#clip1)">
<path d="M404.749 226.754H301.685C300.606 226.754 299.731 227.575 299.731 228.587V285.472C299.731 286.485 300.606 287.306 301.685 287.306H404.749C405.829 287.306 406.703 286.485 406.703 285.472V228.588C406.703 227.575 405.828 226.754 404.749 226.754Z" fill="#7F2BC1"/>
<path d="M404.749 226.754H301.685C300.606 226.754 299.731 227.575 299.731 228.587V235.921H406.703V228.587C406.703 227.575 405.828 226.754 404.749 226.754Z" fill="#5D208D"/>
<path d="M363.201 226.754H343.233C342.154 226.754 341.279 227.575 341.279 228.587V285.472C341.279 286.485 342.154 287.306 343.233 287.306H363.201C364.281 287.306 365.156 286.485 365.156 285.472V228.588C365.156 227.575 364.281 226.754 363.201 226.754Z" fill="#FFDB57"/>
<path d="M363.201 226.754H343.233C342.154 226.754 341.279 227.575 341.279 228.587V235.882H365.156V228.587C365.156 227.575 364.281 226.754 363.201 226.754Z" fill="#F5BA3D"/>
<path d="M400.942 192.887C399.025 188.201 396.002 183.625 392.853 180.645C391.698 179.551 390.142 178.997 388.372 179.033C382.504 179.161 372.942 186.069 359.952 199.566C359.628 199.903 359.448 200.341 359.448 200.795V210.492C359.448 211.505 360.323 212.326 361.403 212.326H391.465C398.163 212.326 400.928 209.269 402.067 206.704C403.587 203.285 403.187 198.378 400.942 192.887Z" fill="#FFDB57"/>
<path d="M402.06 196.081C402.006 195.893 401.919 195.714 401.805 195.551C398.854 191.366 392.477 192.932 387.648 194.982C373.617 200.941 367.822 209.148 367.583 209.494C367.192 210.058 367.162 210.777 367.504 211.367C367.846 211.958 368.505 212.326 369.222 212.326H391.466C395.728 212.326 398.889 211.098 400.86 208.678C403.203 205.802 403.618 201.446 402.06 196.081Z" fill="#EF9325"/>
<path d="M346.482 199.566C333.492 186.069 323.93 179.161 318.062 179.033C316.287 178.997 314.736 179.551 313.581 180.645C310.433 183.625 307.409 188.201 305.493 192.887C303.247 198.378 302.847 203.285 304.366 206.704C305.506 209.269 308.27 212.326 314.969 212.326H345.031C346.111 212.326 346.985 211.505 346.985 210.493V200.795C346.986 200.341 346.806 199.903 346.482 199.566Z" fill="#FFDB57"/>
<path d="M338.852 209.494C338.612 209.148 332.818 200.94 318.787 194.982C313.957 192.932 307.581 191.366 304.63 195.551C304.515 195.714 304.429 195.893 304.374 196.081C302.817 201.446 303.232 205.802 305.574 208.678C307.546 211.098 310.706 212.326 314.969 212.326H337.213C337.929 212.326 338.588 211.958 338.93 211.367C339.272 210.777 339.242 210.058 338.852 209.494Z" fill="#EF9325"/>
<path d="M361.403 197.149H345.031C343.952 197.149 343.077 197.97 343.077 198.983V210.493C343.077 211.505 343.952 212.326 345.031 212.326H361.403C362.483 212.326 363.357 211.505 363.357 210.493V198.983C363.357 197.97 362.483 197.149 361.403 197.149Z" fill="#F5BA3D"/>
<path d="M413.151 208.663H293.284C292.204 208.663 291.329 209.484 291.329 210.496V228.587C291.329 229.6 292.204 230.421 293.284 230.421H413.151C414.23 230.421 415.105 229.6 415.105 228.587V210.496C415.105 209.483 414.23 208.663 413.151 208.663Z" fill="#7F2BC1"/>
<path d="M368.229 208.662H338.205V230.42H368.229V208.662Z" fill="#FFDB57"/>
</g>
<g opacity="0.65" clip-path="url(#clip2)">
<path d="M230.642 253.935H183.036C182.538 253.935 182.134 254.314 182.134 254.781V281.058C182.134 281.526 182.538 281.905 183.036 281.905H230.642C231.141 281.905 231.545 281.526 231.545 281.058V254.782C231.544 254.314 231.14 253.935 230.642 253.935Z" fill="#7F2BC1"/>
<path d="M230.642 253.935H183.036C182.538 253.935 182.134 254.314 182.134 254.781V258.169H231.545V254.781C231.544 254.314 231.14 253.935 230.642 253.935Z" fill="#5D208D"/>
<path d="M211.451 253.935H202.227C201.729 253.935 201.325 254.314 201.325 254.781V281.058C201.325 281.526 201.729 281.905 202.227 281.905H211.451C211.949 281.905 212.353 281.526 212.353 281.058V254.782C212.353 254.314 211.949 253.935 211.451 253.935Z" fill="#FFDB57"/>
<path d="M211.451 253.935H202.227C201.729 253.935 201.325 254.314 201.325 254.781V258.151H212.353V254.781C212.353 254.314 211.949 253.935 211.451 253.935Z" fill="#F5BA3D"/>
<path d="M228.883 238.29C227.998 236.126 226.601 234.012 225.147 232.635C224.614 232.13 223.895 231.874 223.077 231.891C220.367 231.95 215.95 235.141 209.95 241.376C209.8 241.531 209.717 241.734 209.717 241.943V246.423C209.717 246.891 210.121 247.27 210.62 247.27H224.506C227.6 247.27 228.877 245.858 229.403 244.673C230.105 243.094 229.92 240.827 228.883 238.29Z" fill="#FFDB57"/>
<path d="M229.4 239.766C229.375 239.679 229.335 239.596 229.282 239.521C227.919 237.588 224.973 238.311 222.743 239.258C216.262 242.011 213.585 245.802 213.474 245.962C213.294 246.222 213.28 246.554 213.438 246.827C213.596 247.1 213.901 247.27 214.232 247.27H224.506C226.475 247.27 227.935 246.703 228.846 245.585C229.928 244.256 230.119 242.244 229.4 239.766Z" fill="#EF9325"/>
<path d="M203.728 241.376C197.728 235.141 193.311 231.95 190.601 231.891C189.781 231.874 189.064 232.13 188.531 232.635C187.077 234.012 185.68 236.126 184.795 238.29C183.758 240.827 183.573 243.094 184.274 244.673C184.801 245.858 186.078 247.27 189.172 247.27H203.058C203.556 247.27 203.96 246.891 203.96 246.423V241.943C203.961 241.734 203.878 241.531 203.728 241.376Z" fill="#FFDB57"/>
<path d="M200.204 245.962C200.093 245.802 197.416 242.01 190.936 239.258C188.705 238.311 185.759 237.588 184.396 239.521C184.343 239.596 184.303 239.679 184.278 239.766C183.559 242.244 183.751 244.256 184.832 245.585C185.743 246.703 187.203 247.27 189.172 247.27H199.447C199.777 247.27 200.082 247.1 200.24 246.827C200.398 246.554 200.384 246.222 200.204 245.962Z" fill="#EF9325"/>
<path d="M210.62 240.259H203.058C202.559 240.259 202.155 240.639 202.155 241.106V246.423C202.155 246.891 202.559 247.27 203.058 247.27H210.62C211.119 247.27 211.523 246.891 211.523 246.423V241.106C211.523 240.638 211.119 240.259 210.62 240.259Z" fill="#F5BA3D"/>
<path d="M234.523 245.578H179.155C178.657 245.578 178.253 245.957 178.253 246.425V254.781C178.253 255.249 178.657 255.628 179.155 255.628H234.523C235.021 255.628 235.425 255.249 235.425 254.781V246.425C235.425 245.957 235.021 245.578 234.523 245.578Z" fill="#7F2BC1"/>
<path d="M213.773 245.577H199.905V255.628H213.773V245.577Z" fill="#FFDB57"/>
</g>
<defs>
<clipPath id="clip0">
<rect width="140.279" height="131.438" fill="white" transform="translate(29.8396 52.612)"/>
</clipPath>
<clipPath id="clip1">
<rect width="123.776" height="116.113" fill="white" transform="translate(291.329 175.112)"/>
</clipPath>
<clipPath id="clip2">
<rect width="57.1726" height="53.6361" fill="white" transform="translate(178.253 230.079)"/>
</clipPath>
</defs>
</svg>
