<svg width="565" height="565" viewBox="0 0 565 565" fill="none" xmlns="http://www.w3.org/2000/svg">
<path d="M123.651 483.214C168.068 527.63 227.122 552.091 289.936 552.091C352.75 552.091 411.804 527.63 456.22 483.214C500.637 438.797 525.098 379.744 525.098 316.929C525.098 254.115 500.637 195.062 456.22 150.645C411.804 106.228 352.75 81.7675 289.936 81.7676C249.713 81.7676 210.015 92.1007 175.132 111.648C171.515 113.675 170.228 118.249 172.253 121.864C174.278 125.48 178.852 126.77 182.47 124.742C215.115 106.449 252.277 96.7779 289.936 96.7779C411.328 96.7779 510.087 195.537 510.087 316.929C510.087 438.322 411.328 537.081 289.936 537.081C168.543 537.081 69.7844 438.322 69.7844 316.929C69.7844 279.274 79.46 242.109 97.7646 209.452C99.791 205.837 98.5032 201.263 94.8877 199.236C91.2742 197.212 86.698 198.497 84.6716 202.113C65.1122 237.006 54.7741 276.71 54.7741 316.929C54.7741 379.744 79.2349 438.797 123.651 483.214Z" fill="#7F2BC1" fill-opacity="0.77"/>
<path d="M264.815 169.959C225.975 179.022 194.443 203.038 174.886 234.498C155.329 265.958 147.747 304.863 156.809 343.702C174.933 421.38 252.871 469.83 330.55 451.707C386.697 438.606 429.67 393.485 440.033 336.758C440.199 335.852 440.175 334.917 439.966 334.018C439.122 330.399 435.504 328.151 431.886 328.996C429.143 329.637 427.187 331.87 426.768 334.493C417.322 385.877 378.369 426.732 327.494 438.602C257.042 455.04 186.352 411.097 169.915 340.644C161.695 305.414 168.568 270.134 186.311 241.599C204.049 213.07 232.652 191.282 267.874 183.064C318.797 171.182 371.859 190.633 403.058 232.616C405.274 235.6 409.489 236.22 412.472 234.004C415.455 231.786 416.076 227.571 413.859 224.589C379.462 178.304 320.959 156.859 264.815 169.959Z" fill="#F5BA3D" fill-opacity="0.48"/>
<path d="M289.551 385.64C306.661 387.82 323.061 382.837 335.729 373.032C348.398 363.227 357.334 348.6 359.514 331.491C363.873 297.273 339.583 265.889 305.365 261.53C280.632 258.379 256.413 270.192 243.664 291.624C243.46 291.967 243.329 292.349 243.278 292.745C243.075 294.339 244.203 295.796 245.797 295.999C247.005 296.152 248.134 295.542 248.699 294.542C260.272 275.137 282.218 264.447 304.629 267.302C335.663 271.256 357.695 299.721 353.74 330.755C351.763 346.275 343.661 359.539 332.169 368.432C320.679 377.323 305.802 381.844 290.286 379.868C267.854 377.01 249.277 361.129 242.958 339.41C242.509 337.867 240.894 336.98 239.351 337.429C237.808 337.878 236.921 339.493 237.37 341.036C244.338 364.981 264.82 382.49 289.551 385.64Z" fill="#7F2BC1" fill-opacity="0.1"/>
<path d="M167.732 439.343C167.484 440.145 167.648 441.017 168.168 441.671L176.108 451.711C177.416 453.364 176.26 455.804 174.147 455.839L161.352 456.033C160.512 456.044 159.734 456.468 159.27 457.168L152.179 467.821C151.007 469.577 148.33 469.227 147.649 467.232L147.039 465.449L143.507 455.121C143.235 454.328 142.59 453.722 141.784 453.495L129.461 450.041C127.429 449.47 126.931 446.818 128.621 445.549L138.857 437.871C139.531 437.368 139.909 436.566 139.874 435.729L139.353 422.941C139.265 420.835 141.636 419.541 143.361 420.755L153.83 428.118C154.515 428.6 155.396 428.715 156.181 428.422L159.89 427.046L168.18 423.974C170.159 423.242 172.121 425.096 171.499 427.114L167.732 439.343Z" fill="#FED370"/>
<path d="M340.768 84.1372C340.259 85.7893 340.599 87.5822 341.671 88.9369L358.028 109.638C360.725 113.051 358.351 118.072 354.005 118.137L327.681 118.51C325.951 118.534 324.351 119.406 323.4 120.845L308.83 142.775C306.424 146.392 300.916 145.667 299.509 141.554L298.251 137.882L290.959 116.595C290.403 114.959 289.075 113.705 287.413 113.237L262.052 106.091C257.871 104.915 256.841 99.4465 260.312 96.8355L281.359 81.0381C282.74 80.0043 283.516 78.3555 283.446 76.6286L282.342 50.2793C282.159 45.9359 287.03 43.2792 290.585 45.7836L312.143 60.9777C313.551 61.9749 315.363 62.212 316.98 61.6108L324.607 58.7862L341.654 52.4725C345.727 50.969 349.772 54.7938 348.491 58.9481L340.768 84.1372Z" fill="#FED370"/>
<path d="M190.381 254.71C189.911 256.234 190.222 257.887 191.21 259.132L206.278 278.188C208.761 281.327 206.565 285.954 202.56 286.02L178.275 286.389C176.678 286.412 175.202 287.216 174.324 288.544L160.862 308.761C158.637 312.094 153.559 311.433 152.265 307.646L151.107 304.263L144.403 284.66C143.889 283.156 142.665 281.999 141.131 281.571L117.744 275.015C113.888 273.934 112.944 268.9 116.151 266.489L135.58 251.919C136.855 250.963 137.573 249.444 137.511 247.853L136.519 223.58C136.353 219.582 140.852 217.129 144.129 219.43L163.998 233.407C165.296 234.324 166.967 234.54 168.46 233.987L175.497 231.375L191.23 225.542C194.989 224.154 198.715 227.673 197.531 231.5L190.381 254.71Z" fill="#FED370"/>
<path d="M190.53 254.659C190.06 256.182 190.371 257.835 191.36 259.08L206.427 278.136C208.911 281.275 206.714 285.902 202.709 285.968L178.425 286.337C176.827 286.36 175.352 287.164 174.473 288.492L161.011 308.709C158.786 312.042 153.708 311.382 152.414 307.594L151.256 304.211C176.642 272.057 179.345 247.692 175.648 231.322L191.382 225.489C195.138 224.102 198.864 227.621 197.681 231.448L190.53 254.659Z" fill="#FDA736"/>
<path d="M348.523 368.705C348.239 369.619 348.428 370.612 349.02 371.36L358.068 382.8C359.558 384.683 358.239 387.462 355.835 387.501L341.254 387.725C340.296 387.739 339.409 388.222 338.883 389.018L330.799 401.155C329.465 403.156 326.415 402.759 325.638 400.487L324.944 398.455L320.919 386.686C320.611 385.783 319.875 385.089 318.955 384.831L304.913 380.894C302.599 380.245 302.032 377.224 303.957 375.776L315.622 367.029C316.388 366.456 316.818 365.544 316.78 364.588L316.185 350.016C316.086 347.614 318.787 346.141 320.755 347.523L332.684 355.914C333.462 356.466 334.466 356.596 335.363 356.263L339.588 354.694L349.033 351.192C351.29 350.359 353.526 352.472 352.816 354.769L348.523 368.705Z" fill="#FED370"/>
<path d="M348.745 369.165C348.461 370.079 348.65 371.072 349.242 371.82L358.29 383.26C359.78 385.144 358.461 387.923 356.057 387.961L341.476 388.185C340.518 388.199 339.631 388.683 339.104 389.479L331.021 401.615C329.687 403.616 326.636 403.22 325.859 400.947L325.166 398.916C340.406 379.612 342.029 364.982 339.81 355.154L349.255 351.652C351.511 350.817 353.747 352.93 353.038 355.229L348.745 369.165Z" fill="#FDA736"/>
<g clip-path="url(#clip0)">
<path d="M189.608 132.968H49.7734C48.3086 132.968 47.1219 134.081 47.1219 135.453V212.54C47.1219 213.913 48.3086 215.025 49.7734 215.025H189.608C191.073 215.025 192.259 213.912 192.259 212.54V135.453C192.259 134.08 191.072 132.968 189.608 132.968Z" fill="#7F2BC1"/>
<path d="M189.608 132.968H49.7734C48.3086 132.968 47.1219 134.081 47.1219 135.453V145.391H192.259V135.453C192.259 134.08 191.072 132.968 189.608 132.968Z" fill="#5D208D"/>
<path d="M133.237 132.968H106.145C104.68 132.968 103.493 134.081 103.493 135.453V212.54C103.493 213.913 104.68 215.025 106.145 215.025H133.237C134.701 215.025 135.888 213.912 135.888 212.54V135.453C135.888 134.08 134.701 132.968 133.237 132.968Z" fill="#FFDB57"/>
<path d="M133.237 132.968H106.145C104.68 132.968 103.493 134.081 103.493 135.453V145.337H135.888V135.453C135.888 134.08 134.701 132.968 133.237 132.968Z" fill="#F5BA3D"/>
<path d="M184.442 87.0724C181.842 80.7227 177.74 74.5212 173.468 70.4826C171.9 69.001 169.79 68.2499 167.387 68.2981C159.426 68.4718 146.453 77.8339 128.829 96.1242C128.388 96.5805 128.145 97.174 128.145 97.7892V110.931C128.145 112.303 129.331 113.415 130.796 113.415H171.584C180.672 113.415 184.423 109.273 185.969 105.797C188.031 101.164 187.489 94.5138 184.442 87.0724Z" fill="#FFDB57"/>
<path d="M185.96 91.4015C185.886 91.1464 185.769 90.9039 185.613 90.6835C181.609 85.0112 172.957 87.1336 166.405 89.9128C147.368 97.9869 139.507 109.109 139.181 109.578C138.652 110.342 138.611 111.316 139.075 112.117C139.539 112.917 140.433 113.416 141.405 113.416H171.585C177.368 113.416 181.657 111.752 184.332 108.472C187.51 104.575 188.073 98.6722 185.96 91.4015Z" fill="#EF9325"/>
<path d="M110.552 96.1245C92.9277 77.8342 79.9547 68.4721 71.9935 68.2984C69.5846 68.2499 67.4798 69.0013 65.9127 70.4829C61.6415 74.5212 57.5388 80.7231 54.9391 87.0728C51.8923 94.5141 51.3495 101.164 53.4106 105.798C54.9568 109.273 58.7075 113.416 67.796 113.416H108.584C110.049 113.416 111.235 112.303 111.235 110.932V97.7896C111.236 97.1743 110.993 96.5809 110.552 96.1245Z" fill="#FFDB57"/>
<path d="M100.2 109.578C99.8747 109.109 92.0132 97.9866 72.9765 89.9128C66.4234 87.1336 57.772 85.0121 53.7681 90.6832C53.6127 90.9039 53.4956 91.1461 53.4215 91.4015C51.3082 98.6722 51.8717 104.575 55.0496 108.472C57.7245 111.752 62.0131 113.415 67.7964 113.415H97.9763C98.9484 113.415 99.8426 112.917 100.306 112.117C100.77 111.316 100.729 110.342 100.2 109.578Z" fill="#EF9325"/>
<path d="M130.797 92.8493H108.584C107.119 92.8493 105.933 93.9618 105.933 95.3337V110.931C105.933 112.304 107.119 113.416 108.584 113.416H130.797C132.262 113.416 133.448 112.303 133.448 110.931V95.3337C133.448 93.9615 132.262 92.8493 130.797 92.8493Z" fill="#F5BA3D"/>
<path d="M201.007 108.452H38.3741C36.9093 108.452 35.7226 109.564 35.7226 110.936V135.453C35.7226 136.825 36.9093 137.937 38.3741 137.937H201.007C202.472 137.937 203.658 136.824 203.658 135.453V110.936C203.658 109.564 202.472 108.452 201.007 108.452Z" fill="#7F2BC1"/>
<path d="M140.058 108.451H99.3224V137.937H140.058V108.451Z" fill="#FFDB57"/>
</g>
<g opacity="0.9" clip-path="url(#clip1)">
<path d="M484.547 271.46H361.164C359.872 271.46 358.825 272.442 358.825 273.654V341.754C358.825 342.967 359.872 343.949 361.164 343.949H484.547C485.84 343.949 486.887 342.966 486.887 341.754V273.655C486.887 272.442 485.839 271.46 484.547 271.46Z" fill="#7F2BC1"/>
<path d="M484.547 271.46H361.164C359.872 271.46 358.825 272.442 358.825 273.654V282.434H486.887V273.654C486.887 272.442 485.839 271.46 484.547 271.46Z" fill="#5D208D"/>
<path d="M434.808 271.46H410.904C409.611 271.46 408.564 272.442 408.564 273.654V341.754C408.564 342.967 409.611 343.949 410.904 343.949H434.808C436.101 343.949 437.148 342.966 437.148 341.754V273.655C437.148 272.442 436.1 271.46 434.808 271.46Z" fill="#FFDB57"/>
<path d="M434.808 271.46H410.904C409.611 271.46 408.564 272.443 408.564 273.654V282.387H437.148V273.654C437.148 272.442 436.1 271.46 434.808 271.46Z" fill="#F5BA3D"/>
<path d="M479.989 230.915C477.695 225.306 474.075 219.827 470.306 216.259C468.923 214.951 467.061 214.287 464.941 214.33C457.916 214.483 446.47 222.754 430.919 238.911C430.53 239.315 430.315 239.839 430.315 240.382V251.992C430.315 253.204 431.362 254.187 432.655 254.187H468.644C476.663 254.187 479.973 250.527 481.337 247.456C483.157 243.364 482.678 237.489 479.989 230.915Z" fill="#FFDB57"/>
<path d="M481.329 234.739C481.263 234.514 481.16 234.3 481.022 234.105C477.49 229.094 469.856 230.969 464.074 233.424C447.277 240.557 440.34 250.382 440.053 250.797C439.586 251.472 439.55 252.332 439.96 253.04C440.369 253.747 441.158 254.187 442.016 254.187H468.645C473.748 254.187 477.532 252.718 479.892 249.82C482.696 246.377 483.193 241.162 481.329 234.739Z" fill="#EF9325"/>
<path d="M414.792 238.912C399.241 222.754 387.795 214.483 380.77 214.33C378.645 214.287 376.787 214.951 375.405 216.26C371.636 219.827 368.016 225.306 365.722 230.915C363.034 237.489 362.555 243.364 364.373 247.457C365.738 250.527 369.047 254.187 377.066 254.187H413.056C414.348 254.187 415.395 253.204 415.395 251.992V240.383C415.396 239.839 415.181 239.315 414.792 238.912Z" fill="#FFDB57"/>
<path d="M405.658 250.797C405.371 250.382 398.435 240.557 381.637 233.424C375.855 230.969 368.222 229.095 364.689 234.105C364.552 234.3 364.448 234.514 364.383 234.739C362.518 241.162 363.015 246.377 365.82 249.82C368.18 252.717 371.964 254.187 377.067 254.187H403.696C404.554 254.187 405.343 253.746 405.752 253.039C406.161 252.332 406.125 251.472 405.658 250.797Z" fill="#EF9325"/>
<path d="M432.655 236.018H413.056C411.763 236.018 410.716 237.001 410.716 238.213V251.992C410.716 253.205 411.763 254.187 413.056 254.187H432.655C433.948 254.187 434.995 253.204 434.995 251.992V238.213C434.995 237.001 433.948 236.018 432.655 236.018Z" fill="#F5BA3D"/>
<path d="M494.605 249.802H351.106C349.813 249.802 348.766 250.784 348.766 251.996V273.654C348.766 274.867 349.813 275.849 351.106 275.849H494.605C495.898 275.849 496.945 274.866 496.945 273.654V251.996C496.945 250.784 495.898 249.802 494.605 249.802Z" fill="#7F2BC1"/>
<path d="M440.827 249.801H404.884V275.849H440.827V249.801Z" fill="#FFDB57"/>
</g>
<g opacity="0.65" clip-path="url(#clip2)">
<path d="M276.114 303.999H219.123C218.526 303.999 218.042 304.453 218.042 305.013V336.47C218.042 337.03 218.526 337.484 219.123 337.484H276.114C276.711 337.484 277.195 337.03 277.195 336.47V305.013C277.195 304.453 276.711 303.999 276.114 303.999Z" fill="#7F2BC1"/>
<path d="M276.114 303.999H219.123C218.526 303.999 218.042 304.453 218.042 305.013V309.068H277.195V305.013C277.195 304.453 276.711 303.999 276.114 303.999Z" fill="#5D208D"/>
<path d="M253.139 303.999H242.098C241.501 303.999 241.017 304.453 241.017 305.013V336.47C241.017 337.03 241.501 337.484 242.098 337.484H253.139C253.736 337.484 254.22 337.03 254.22 336.47V305.013C254.22 304.453 253.736 303.999 253.139 303.999Z" fill="#FFDB57"/>
<path d="M253.139 303.999H242.098C241.501 303.999 241.017 304.453 241.017 305.013V309.047H254.22V305.013C254.22 304.453 253.736 303.999 253.139 303.999Z" fill="#F5BA3D"/>
<path d="M274.009 285.27C272.949 282.679 271.277 280.148 269.536 278.5C268.897 277.896 268.037 277.589 267.058 277.609C263.813 277.68 258.526 281.5 251.343 288.964C251.163 289.15 251.064 289.392 251.064 289.644V295.006C251.064 295.566 251.548 296.02 252.145 296.02H268.768C272.472 296.02 274.001 294.33 274.631 292.911C275.472 291.021 275.25 288.307 274.009 285.27Z" fill="#FFDB57"/>
<path d="M274.627 287.037C274.597 286.933 274.549 286.834 274.486 286.744C272.854 284.429 269.328 285.295 266.657 286.429C258.899 289.724 255.695 294.263 255.562 294.454C255.346 294.766 255.33 295.164 255.519 295.49C255.708 295.817 256.072 296.02 256.468 296.02H268.769C271.126 296.02 272.873 295.341 273.964 294.003C275.259 292.413 275.488 290.004 274.627 287.037Z" fill="#EF9325"/>
<path d="M243.894 288.964C236.711 281.5 231.423 277.68 228.179 277.609C227.197 277.589 226.339 277.896 225.7 278.501C223.96 280.148 222.288 282.679 221.228 285.27C219.986 288.307 219.765 291.021 220.605 292.912C221.235 294.33 222.764 296.02 226.468 296.02H243.092C243.689 296.02 244.172 295.566 244.172 295.007V289.644C244.172 289.393 244.073 289.15 243.894 288.964Z" fill="#FFDB57"/>
<path d="M239.675 294.454C239.542 294.263 236.338 289.724 228.579 286.429C225.909 285.295 222.383 284.43 220.751 286.744C220.687 286.834 220.64 286.933 220.61 287.037C219.748 290.004 219.978 292.413 221.273 294.003C222.363 295.341 224.111 296.02 226.468 296.02H238.768C239.165 296.02 239.529 295.817 239.718 295.49C239.907 295.164 239.891 294.766 239.675 294.454Z" fill="#EF9325"/>
<path d="M252.145 287.628H243.092C242.495 287.628 242.011 288.082 242.011 288.641V295.007C242.011 295.566 242.495 296.02 243.092 296.02H252.145C252.742 296.02 253.226 295.566 253.226 295.007V288.641C253.226 288.082 252.742 287.628 252.145 287.628Z" fill="#F5BA3D"/>
<path d="M280.76 293.995H214.477C213.88 293.995 213.396 294.449 213.396 295.008V305.013C213.396 305.573 213.88 306.027 214.477 306.027H280.76C281.357 306.027 281.841 305.573 281.841 305.013V295.008C281.841 294.448 281.357 293.995 280.76 293.995Z" fill="#7F2BC1"/>
<path d="M255.919 293.994H239.317V306.027H255.919V293.994Z" fill="#FFDB57"/>
</g>
<defs>
<clipPath id="clip0">
<rect width="167.936" height="157.352" fill="white" transform="translate(35.7226 62.9847)"/>
</clipPath>
<clipPath id="clip1">
<rect width="148.179" height="139.006" fill="white" transform="translate(348.766 209.636)"/>
</clipPath>
<clipPath id="clip2">
<rect width="68.4444" height="64.2107" fill="white" transform="translate(213.396 275.441)"/>
</clipPath>
</defs>
</svg>
