<svg width="40" height="40" viewBox="0 0 40 40" fill="none" xmlns="http://www.w3.org/2000/svg">
<rect width="40" height="40" rx="10" fill="#4D76A1"/>
<path fill-rule="evenodd" clip-rule="evenodd" d="M19.6778 28.0429H21.471C21.471 28.0429 22.0127 27.9834 22.2892 27.6853C22.5438 27.4116 22.5356 26.8976 22.5356 26.8976C22.5356 26.8976 22.5006 24.4915 23.6174 24.1371C24.7182 23.7881 26.1318 26.4627 27.6302 27.491C28.7632 28.2693 29.6242 28.0987 29.6242 28.0987L33.6305 28.0429C33.6305 28.0429 35.7263 27.9138 34.7326 26.266C34.6511 26.1311 34.1539 25.047 31.7538 22.8192C29.2418 20.4876 29.5782 20.8647 32.6042 16.8315C34.4471 14.3753 35.1838 12.8757 34.9537 12.2334C34.7342 11.6217 33.3788 11.7834 33.3788 11.7834L28.8679 11.8115C28.8679 11.8115 28.5335 11.7659 28.2855 11.9141C28.0432 12.0595 27.8872 12.3984 27.8872 12.3984C27.8872 12.3984 27.1732 14.2991 26.221 15.9156C24.2124 19.3265 23.4092 19.5065 23.081 19.2947C22.3173 18.8011 22.5079 17.3117 22.5079 16.2536C22.5079 12.9482 23.0093 11.57 21.5317 11.2132C21.0414 11.0947 20.6805 11.0165 19.4265 11.0039C17.817 10.9872 16.4547 11.0088 15.6833 11.3867C15.1701 11.638 14.7743 12.198 15.0154 12.2302C15.3135 12.2701 15.9888 12.4122 16.3468 12.8997C16.809 13.5286 16.7927 14.941 16.7927 14.941C16.7927 14.941 17.0583 18.832 16.1724 19.3155C15.5644 19.647 14.7303 18.9701 12.9395 15.8757C12.0219 14.2906 11.3292 12.5385 11.3292 12.5385C11.3292 12.5385 11.1956 12.211 10.9573 12.0359C10.6682 11.8237 10.2642 11.7561 10.2642 11.7561L5.97764 11.7842C5.97764 11.7842 5.33415 11.8021 5.09794 12.0819C4.88778 12.3308 5.08124 12.8456 5.08124 12.8456C5.08124 12.8456 8.43715 20.6969 12.237 24.6536C15.7212 28.2811 19.6778 28.0429 19.6778 28.0429Z" fill="white"/>
</svg>
